<svg width="18" height="18" viewBox="0 0 18 18" fill="none" xmlns="http://www.w3.org/2000/svg">
<path d="M12.6617 8.48444C12.8739 8.30766 12.9025 7.99238 12.7258 7.78024C12.549 7.5681 12.2337 7.53944 12.0216 7.71622L12.6617 8.48444ZM9.15965 10.752L8.83955 11.1361C9.02498 11.2906 9.29432 11.2906 9.47974 11.1361L9.15965 10.752ZM6.29774 7.71622C6.0856 7.53944 5.77032 7.5681 5.59353 7.78024C5.41675 7.99238 5.44541 8.30766 5.65755 8.48444L6.29774 7.71622ZM12.0216 7.71622L8.83955 10.3679L9.47974 11.1361L12.6617 8.48444L12.0216 7.71622ZM9.47974 10.3679L6.29774 7.71622L5.65755 8.48444L8.83955 11.1361L9.47974 10.3679ZM15.7 9.00078C15.7 12.7011 12.7004 15.7008 9.00005 15.7008V16.7008C13.2526 16.7008 16.7 13.2534 16.7 9.00078H15.7ZM9.00005 15.7008C5.29974 15.7008 2.30005 12.7011 2.30005 9.00078H1.30005C1.30005 13.2534 4.74746 16.7008 9.00005 16.7008V15.7008ZM2.30005 9.00078C2.30005 5.30047 5.29974 2.30078 9.00005 2.30078V1.30078C4.74746 1.30078 1.30005 4.74819 1.30005 9.00078H2.30005ZM9.00005 2.30078C12.7004 2.30078 15.7 5.30047 15.7 9.00078H16.7C16.7 4.74819 13.2526 1.30078 9.00005 1.30078V2.30078Z" fill="white"/>
</svg>
